<?xml version="1.0" encoding="UTF-8"?>
<svg width="1200pt" height="1200pt" version="1.1" viewBox="0 0 1200 1200" xmlns="http://www.w3.org/2000/svg">
 <path d="m49.199 553.2c69.602-54 122.4-87.602 158.4-92.398 36-4.8008 67.199-30 106.8-63.602 40.801-34.801 66-18 102-31.199 38.398-14.398 39.602-36 111.6-20.398 56.398 12 52.801 12 106.8 1.1992 36-6 74.398 0 120 28.801 28.801 18 61.199 48 134.4 75.602 72 27.602 43.199 51.602 98.398 85.199 55.199 34.801 16.801 19.199 108 104.4 69.602 64.801 73.199 250.8 73.199 250.8s-48-27.602-99.602-45.602c-67.199-22.801-69.602 18-157.2 16.801-93.602-1.1992-102 13.199-126-4.8008-25.199-18-45.602-18-88.801-22.801-28.801-3.6016-60 12-106.8-38.398-56.398-61.199-50.398-27.602-104.4-45.602-52.801-18-69.602-27.602-120-87.602-42-49.199-16.801-1.1992-100.8-74.398-97.195-81.598-81.594-33.598-216-36zm162-36c78-12 213.6-28.801 271.2 0 19.199 6 28.801 92.398 18 182.4 46.801-60 28.801-163.2 20.398-175.2 0 0 67.199 18 80.398 27.602 18 12 46.801 105.6 37.199 201.6 46.801-64.801 19.199-164.4 7.1992-189.6-2.3984-4.8008 1.1992-4.8008 14.398-2.3984 13.199 2.3984 66 13.199 86.398 39.602 12 14.398 38.398 93.602-1.1992 182.4 70.801-70.801 44.398-147.6 39.602-166.8-4.8008-19.199-2.3984-10.801 14.398-4.8008 62.398 31.199 110.4 112.8 98.398 207.6 46.801-111.6-28.801-181.2-28.801-181.2s32.398 7.1992 63.602 24c31.199 16.801 91.199 78 129.6 154.8 0-39.602-54-124.8-104.4-165.6 28.801-2.3984 62.398 1.1992 100.8 20.398-20.398-22.801-40.801-34.801-68.398-40.801-27.602-4.8008-49.199-1.1992-62.398-4.8008-49.199-13.199-81.602-30-81.602-30 16.801-16.801 73.199-36 104.4-38.398-82.801-15.602-112.8 19.199-123.6 21.602-19.199 4.8008-34.801-8.3984-50.398-12-12-2.3984 7.1992-22.801 19.199-31.199 27.602-18 55.199-30 79.199-33.602-72-8.3984-127.2 50.398-144 46.801-25.199-4.8008-51.602-14.398-86.398-20.398-25.199-3.6016-2.3984-18 14.398-28.801 15.602-9.6016 73.199-43.199 109.2-54-99.602 1.1992-133.2 39.602-154.8 52.801-42 25.199-146.4-13.199-146.4-13.199s69.602-70.801 175.2-88.801c-148.8-4.8008-163.2 70.801-235.2 74.398-47.992 1.1992-158.39 25.199-195.59 45.598z"/>
</svg>
