<?xml version="1.0" encoding="UTF-8"?>
<svg width="1200pt" height="1200pt" version="1.1" viewBox="0 0 1200 1200" xmlns="http://www.w3.org/2000/svg">
 <path d="m692.26 1099.2h-184.5c-10.594 0-19.172-8.625-19.172-19.219v-97.828c-27.797-8.0625-54.656-19.172-80.016-33.141l-69.188 69.188c-3.5625 3.6094-8.4844 5.625-13.547 5.625-5.1094 0-9.9844-2.0156-13.594-5.625l-130.45-130.45c-3.6094-3.6094-5.625-8.4844-5.625-13.594 0-5.0625 2.0156-9.9844 5.625-13.547l69.188-69.188c-13.969-25.359-25.078-52.219-33.141-80.016h-97.828c-10.594 0-19.219-8.5781-19.219-19.172v-184.5c0-10.594 8.625-19.172 19.219-19.172h97.828c8.0625-27.797 19.219-54.656 33.141-80.016l-69.188-69.188c-3.6094-3.5625-5.625-8.4844-5.625-13.547 0-5.1094 2.0156-9.9844 5.625-13.594l130.45-130.45c3.6094-3.6094 8.4844-5.625 13.594-5.625 5.0625 0 9.9844 2.0156 13.547 5.625l69.188 69.188c25.359-13.922 52.219-25.078 80.016-33.141v-97.828c0-10.594 8.5781-19.219 19.172-19.219h184.5c5.1094 0 9.9844 2.0625 13.594 5.625 3.5625 3.6094 5.5781 8.4844 5.5781 13.594v97.828c27.797 8.0625 54.656 19.219 80.016 33.141l69.188-69.188c3.5625-3.6094 8.4844-5.625 13.547-5.625 5.1094 0 9.9844 2.0156 13.594 5.625l130.45 130.45c3.6094 3.6094 5.625 8.4844 5.625 13.594 0 5.0625-2.0156 9.9844-5.625 13.547l-69.188 69.188c13.922 25.359 25.078 52.219 33.141 80.016h97.828c5.1094 0 9.9844 2.0156 13.594 5.5781 3.5625 3.6094 5.625 8.4844 5.625 13.594v184.5c0 5.1094-2.0625 9.9844-5.625 13.594-3.6094 3.5625-8.4844 5.5781-13.594 5.5781h-97.828c-8.0625 27.797-19.172 54.656-33.141 80.016l69.188 69.188c3.6094 3.5625 5.625 8.4844 5.625 13.547 0 5.1094-2.0156 9.9844-5.625 13.594l-130.45 130.45c-3.6094 3.6094-8.4844 5.625-13.594 5.625-5.0625 0-9.9844-2.0156-13.547-5.625l-69.188-69.188c-25.359 13.969-52.219 25.078-80.016 33.141v97.828c0 5.1094-2.0156 9.9844-5.5781 13.594-3.6094 3.5625-8.4844 5.625-13.594 5.625zm-165.28-38.438h146.06v-93.281c0-8.8125 6-16.5 14.578-18.656 34.219-8.5312 66.938-22.078 97.172-40.219 7.5938-4.5469 17.25-3.375 23.484 2.8594l66 66 103.31-103.31-66-66c-6.2344-6.2344-7.4531-15.891-2.9062-23.438 18.141-30.234 31.688-63 40.266-97.219 2.1562-8.5312 9.7969-14.531 18.609-14.531h93.234v-146.02h-93.281c-8.8125 0-16.5-6-18.656-14.578-8.5312-34.172-22.125-66.891-40.219-97.125-4.5469-7.5469-3.375-17.25 2.8594-23.484l66-66-103.31-103.31-66 66v0.046875c-6.2344 6.2344-15.891 7.4062-23.438 2.8594-30.234-18.141-63-31.688-97.219-40.266-8.5312-2.1094-14.531-9.7969-14.531-18.609v-93.281h-146.02v93.328-0.046875c0 8.8125-6 16.5-14.578 18.656-34.172 8.5312-66.891 22.125-97.125 40.219-7.5469 4.5469-17.25 3.375-23.484-2.8594l-66-66-103.31 103.31 66 66h0.046875c6.2344 6.2344 7.4062 15.891 2.8594 23.438-18.141 30.234-31.688 62.953-40.219 97.125-2.1562 8.5781-9.8438 14.531-18.656 14.531h-93.281v146.11h93.328-0.046875c8.8125 0 16.5 6 18.656 14.578 8.5312 34.219 22.078 66.938 40.219 97.172 4.5469 7.5938 3.375 17.25-2.8594 23.484l-66 66 103.31 103.31 66-66c6.2344-6.2344 15.891-7.4531 23.438-2.9062 30.234 18.094 62.953 31.641 97.125 40.172 8.5781 2.1562 14.531 9.8438 14.531 18.656z"/>
 <path d="m600 882.42c-87.797 0-170.58-40.828-224.06-110.48-53.438-69.656-71.438-160.22-48.703-245.02s83.578-154.22 164.72-187.82c81.094-33.609 173.26-27.562 249.28 16.359 76.031 43.875 127.31 120.66 138.74 207.71 11.484 87.047-18.188 174.47-80.297 236.53-52.828 53.156-124.74 82.922-199.69 82.734zm0-526.45c-134.58 0-244.03 109.45-244.03 244.03s109.45 244.03 244.03 244.03 244.03-109.45 244.03-244.03-109.45-244.03-244.03-244.03z"/>
</svg>
