<?xml version="1.0" encoding="UTF-8"?>
<svg width="1200pt" height="1200pt" version="1.1" viewBox="0 0 1200 1200" xmlns="http://www.w3.org/2000/svg">
 <path d="m252.37 706.87c-9 41.25-22.688 133.13 5.0625 232.13 1.6875 7.125 12.469 6.75 13.688-0.375 0.1875-1.125 23.062-110.81 84.188-150-30.422-24.562-99-78.562-102.94-81.75z"/>
 <path d="m1075.9 602.26c-34.312-62.156-104.91-92.344-169.69-58.312-25.125 13.312-52.875 30.562-82.688 51.188 5.25 2.4375 6.9375 27 3.9375 43.125-6.0938 35.344-22.828 93.141-66.188 117.38-41.812 23.25-64.5 36.938-73.312 42.375-2.4375 9.1875-8.0625 30-14.062 58.875 107.77-91.641 395.06-250.31 402-254.63z"/>
 <path d="m1078.3 644.44c-32.766 17.016-73.406 40.359-117.94 66.375 56.812 47.062 61.688 163.5 61.688 164.81 0.09375 7.0312 10.547 9.3281 13.312 2.8125 45.938-97.875 45.375-195.19 42.938-234z"/>
 <path d="m147.19 109.5-0.75 4.3125-24.188 145.13c-3.375 20.625-0.375 41.625 8.625 60.375l61.688 128.63c2.9062 6.4219 13.266 4.5 13.312-2.8125l6.375-189c-0.375-30.703 21-55.547 41.25-76.125-3.375-3.375-70.594-57.656-106.31-70.5z"/>
 <path d="m743.63 662.63c-44.062 21.375-52.875 71.812-54.188 101.62 12.562-7.5 31.5-18.375 58.125-33.188 32.812-18.375 46.5-66 51.938-96.375-16.5 8.8125-38.016 19.172-55.875 27.938z"/>
 <path d="m786.37 502.13c-20.625 10.078-48.047 20.578-64.875 42.75-15.562 25.969-20.203 71.016-22.688 116.06 11.719-13.406 31.875-24.094 48.938-31.5 57.562-59.438 67.688-113.06 68.062-141.94-9.375 5.4375-19.125 9.9375-29.438 14.625z"/>
 <path d="m704.06 493.31 18.188-84.562c2.3906-57.094-20.625-96.188-48.938-117.19-27.75 59.25-15.375 128.63-11.625 145.87 18.938 17.25 32.625 37.875 42.375 55.875z"/>
 <path d="m640.5 456.37c-3.2344-2.8125-6.4219-5.5312-10.125-7.875-2.8125 6.9375-6.1875 18.188-7.5 36.188-1.7812 37.688 2.25 64.969 13.125 112.69 12.375 8.4375 25.5 19.312 36.75 33.188 2.625-32.438 8.625-67.688 20.438-92.25-5.0625-14.438-21.375-54.75-52.688-81.938z"/>
 <path d="m670.13 690.37c-7.875-42-40.031-65.578-70.875-82.125-9.5625 85.312 34.5 133.31 62.062 154.5-0.51562-27.047 10.547-44.484 8.8125-72.375z"/>
 <path d="m574.13 585.19c4.5938-14.016 15.938-13.547 29.25-6.1875-5.25-25.125-7.6875-46.5-8.625-64.688-1.875-39.188 4.125-63.562 10.5-77.812-54.375-131.26-160.5-260.26-224.06-330.94-25.875-28.5-64.125-43.312-102.19-39.188l-110.06 11.438c243.19 92.625 365.39 587.81 378 650.63-32.906-33.984-70.453-70.125-107.25-98.062-48.562-37.312-117.75-31.5-160.69 13.125l-20.25 21c7.5 5.8125 256.08 202.6 340.13 293.16-7.2656 56.016-10.641 113.16-7.9688 170.44 0.1875 7.6875 6.5625 13.5 13.875 13.5 7.9688 0.09375 14.484-6.7031 14.062-14.625-4.4531-109.27 14.016-229.69 40.594-331.55-29.438-18.75-109.31-82.312-85.312-210.19z"/>
 <path d="m818.06 451.5c27-26.625 29.812-65.25 28.312-89.625-21.562 14.531-73.172 21.984-91.875 30.75l-22.875 106.5c28.734-19.641 62.016-26.625 86.438-47.625z"/>
 <path d="m742.5 344.63 34.688-91.875c10.453-40.547-24.375-86.953-49.125-110.25-25.312 39.188-24.938 109.31-22.125 140.44 13.5 13.5 27.75 33.562 36.562 61.688z"/>
 <path d="m854.26 235.13c-18.891 3.2344-39.703 12.891-48.75 17.625-0.375 2.625-38.25 105.94-38.25 105.94 11.812-3.5625 25.875-7.6875 39.375-10.5 61.078-14.672 83.156-86.203 78.375-123.37-8.0625 4.0781-18.844 7.6406-30.75 10.312z"/>
 <path d="m841.31 209.06c28.5-52.5 12.938-98.25 3.9375-117.38-51.938 19.125-54.375 74.062-54.375 87.562 6.3281 13.172 12.328 27 14.438 42.375 9.9375-4.3125 22.688-9.375 36-12.562z"/>
</svg>
