<?xml version="1.0" encoding="UTF-8"?>
<svg width="1200pt" height="1200pt" version="1.1" viewBox="0 0 1200 1200" xmlns="http://www.w3.org/2000/svg">
 <path d="m852.74 189c-0.09375 15.703-4.125 31.125-11.766 44.859-9.5156 3.5625-18.375 8.5781-26.344 14.906-2.7656 2.1562-5.3906 4.4531-7.875 6.8438 0-1.125-1.125-2.1094-1.6406-3.1406v-1.7344l-2.625-2.7656v0.046875c-3.375-5.2969-7.2188-10.219-11.484-14.766-3.8906-4.125-8.0625-7.9219-12.516-11.391-3-2.3906-6.1875-4.5469-9.5156-6.4688-2.625-8.5781-3.9844-17.531-3.9844-26.531 1.125-32.766 17.25-63.281 43.734-82.594 26.625 19.359 42.844 49.875 44.016 82.734zm30.375 448.5c-21.891-0.1875-43.219 6.9375-60.609 20.25l-1.875 1.6406c-2.9531 2.2969-5.625 4.8281-8.1562 7.5938-3.375 3.5625-6.4688 7.4531-9.2344 11.531-8.25 12.281-13.828 26.156-16.359 40.734l-1.125 6.8906v5.7656-0.046875c-0.1875 3.6094-0.1875 7.1719 0 10.781 9.9844 2.3438 20.203 3.5625 30.469 3.6094 22.266 0.42188 43.969-6.7031 61.641-20.25 24.938-21.234 38.766-52.781 37.5-85.5-10.594-2.2969-21.422-3.2812-32.25-3zm-88.734 20.625c-4.2656-0.60938-8.4844-1.3594-12.516-2.3906l-9.8906-2.25v-20.859h0.60938l-1.5-1.2656h0.046874c-17.391-13.312-38.719-20.438-60.656-20.25-10.5-0.046875-21 1.125-31.219 3.5156-1.2656 32.719 12.562 64.266 37.5 85.5 16.359 12.562 36.234 19.594 56.859 20.109 3.0938-20.109 11.297-39.094 23.859-55.125-0.84375-2.5781-1.9219-5.1562-3.0938-7.5938zm27.984-99.984c-3.6094 2.8125-6.9844 5.9062-10.125 9.2344-3.375 3.5625-6.4219 7.4062-9.1406 11.484-8.2031 12.375-13.781 26.297-16.359 40.875l-1.125 6.9844v5.6719c-0.1875 3.5625-0.1875 7.1719 0 10.734 5.6719 1.3125 11.438 2.2969 17.25 2.8594 4.6406 0.51562 9.3281 0.75 14.016 0.75 18-13.641 39.891-21.281 62.484-21.844 23.719-21.281 36.891-51.938 35.859-83.766-31.828-9.2812-66.141-3.2344-92.859 16.359zm-27.984 0c-4.2188-0.5625-8.3906-1.3594-12.516-2.3906l-9.8906-2.3906v-21.094l-1.5-1.2656c-26.438-19.406-60.375-25.547-91.969-16.641-0.98437 31.875 12.234 62.531 36 83.766 21.609 0.1875 42.703 6.8906 60.469 19.266 3.2344-19.312 11.297-37.5 23.391-52.875-1.2188-2.2969-2.5312-4.5-3.9844-6.6562zm27.984-99.984v-0.046875c-7.4531 5.9062-13.969 12.891-19.266 20.766-8.25 12.328-13.781 26.25-16.219 40.875l-1.125 6.9844c-0.65625 5.4375-1.0312 10.922-1.125 16.5 5.6719 1.3594 11.438 2.25 17.25 2.7656 4.6875 0.60938 9.375 0.89062 14.109 0.75 18-13.688 39.891-21.328 62.484-21.891 23.859-21.141 37.078-51.844 36-83.719-31.641-8.9531-65.625-2.7656-92.109 16.734zm-31.734 16.828 2.1094-3.2344c1.5-2.25 3.2344-4.5 5.0156-6.6094-1.125-2.3906-2.25-4.5-3.5156-6.75-4.125 0-8.3906-1.3594-12.516-2.3906l-9.8906-2.25v-9.9844h0.046874c-0.1875-3.75-0.1875-7.5 0-11.25l-1.5-1.2656c-26.484-19.406-60.422-25.547-92.016-16.641-0.98438 31.875 12.141 62.484 35.859 83.766 21.75 0.23438 42.938 7.0312 60.75 19.5l1.6406-10.5h0.75c2.7656-11.391 7.2188-22.312 13.266-32.391zm92.625-137.48c-22.031-0.32812-43.453 6.8438-60.891 20.25-0.70313 0.51562-1.4062 1.125-2.0156 1.7344-6.6094 5.4844-12.375 11.953-17.109 19.125-8.2969 12.422-13.875 26.438-16.359 41.156-1.4062 7.7344-2.1562 15.609-2.25 23.484 10.266 2.3906 20.812 3.5625 31.359 3.5156 18.047-13.641 39.891-21.281 62.484-21.891 23.672-21.281 36.797-51.938 35.766-83.766-10.172-2.3906-20.578-3.6094-30.984-3.6094zm-88.875 20.625c-4.2188-0.51562-8.3906-1.2656-12.516-2.25l-9.8906-2.3906v-9.9844c-0.1875-3.5625-0.1875-7.1719 0-10.734l-1.5-1.2656c-17.391-13.406-38.859-20.578-60.844-20.25-10.5 0-20.953 1.2188-31.125 3.6094-0.98437 31.875 12.141 62.484 35.859 83.766 21.703 0.32812 42.797 7.125 60.609 19.5 3.375-19.219 11.391-37.359 23.391-52.734-1.4062-1.9219-2.7656-4.1719-3.9844-6.75zm30.609-101.02c-0.75 0.46875-1.4531 0.98438-2.1094 1.5-4.875 3.7031-9.2812 7.875-13.266 12.516-2.1094 2.5312-4.0781 5.1562-5.8594 7.875-8.25 12.328-13.828 26.25-16.406 40.875-1.3594 7.7344-2.1094 15.516-2.25 23.391 10.266 2.3906 20.766 3.6094 31.266 3.6094 18-13.688 39.891-21.328 62.484-21.891 23.859-21.188 37.078-51.938 36-83.859-30.844-8.2031-63.75-2.3438-89.859 15.984zm-31.875-0.98438c-3.1406-4.9688-6.75-9.6562-10.734-14.016-3.2812-3.5625-6.8438-6.8438-10.641-9.8438-26.531-19.312-60.422-25.453-92.016-16.641-0.98437 31.828 12.141 62.484 35.906 83.766 21.234 0.375 41.906 7.0312 59.344 19.125 3.375-19.312 11.391-37.453 23.391-52.875-1.7344-3.2812-3.6094-6.4688-5.7656-9.5156zm-378.89 276c2.4375-8.7656 6.0469-17.203 10.781-24.984-2.4375-15.469-8.7188-30.094-18.281-42.516-21-25.266-52.406-39.422-85.219-38.484-9.1406 31.594-3.2344 65.672 15.984 92.344 5.5312 7.2656 12.094 13.688 19.5 19.031 3.7031-0.42188 7.4062-0.60938 11.109-0.65625 5.1562 0.09375 10.312 0.5625 15.375 1.4062h1.4062c5.7656 0.98438 11.438 2.3906 16.969 4.2188h0.75l2.1094 0.98438 0.046875 0.046875c2.1094 0.75 4.2188 1.6406 6.2344 2.625 0.46875-3.5625 1.125-7.0781 2.0156-10.5 0.75-1.875 0.98438-2.7656 1.2188-3.5156zm195.89 94.266c-9.5156 4.3594-18.469 9.8438-26.766 16.219-17.484 13.219-30.047 31.922-35.625 53.156-0.23437 0.89062-0.46875 1.8281-0.60937 2.7188-0.84375 3.6094-1.4062 7.2188-1.7344 10.875-0.375 4.4062-0.375 8.8594 0 13.266-0.14062 0.46875-0.14062 0.9375 0 1.3594 1.1719 14.859 5.4375 29.297 12.469 42.375 1.875 3.6562 3.9844 7.2188 6.2812 10.641 0.23438 0.5625 0.60938 1.125 0.98438 1.6406 1.5469 2.5312 3.2812 5.0156 5.1094 7.3594l2.7656-1.3594c11.719-5.5781 22.5-12.938 32.016-21.75 13.5-12.516 23.156-28.688 27.75-46.5 6.5625-31.875-1.7812-65.016-22.641-90zm-77.766 90.234c-2.1562-1.1719-4.4062-2.2031-6.75-3.1406-3.6562 2.1562-7.4531 4.125-11.344 5.9062l-9.1406 4.2656-6-8.1094v-0.046875c-2.2031-2.8125-4.2188-5.7188-6.1406-8.7656h-2.1094c-21.938 0.046875-43.172 7.5469-60.234 21.281-8.5312 6.3281-16.219 13.734-22.875 21.984 19.219 26.578 49.594 42.891 82.359 44.25 20.672-0.14062 40.781-6.8906 57.375-19.266-9.9844-17.812-15.234-37.922-15.141-58.359zm16.734-168.98h0.046874c-30.469 12.328-53.531 38.016-62.531 69.609-1.0781 4.5-1.875 9.0469-2.3438 13.641-0.375 4.875-0.375 9.75 0 14.625 1.1719 14.625 5.4375 28.875 12.469 41.719v0.89062c0.89063 1.9688 1.9688 3.8438 3.1406 5.625 0.84375 1.5938 1.7344 3.1406 2.7656 4.6406 1.875 3 3.9844 6 6.2344 9 5.5312-2.1094 10.922-4.5938 16.125-7.4062 3.9375-2.3906 7.6875-5.0625 11.25-7.9688 5.9531-21.984 18.656-41.484 36.234-55.875 5.7188-31.5-2.8125-63.938-23.344-88.5zm-77.578 89.859c-2.25-1.125-4.5469-2.1094-6.8906-3-3.5156 2.0156-7.3594 3.9844-11.484 5.8594l-9.1406 4.2656-6.5156-7.125c-2.25-3.1406-4.3594-6.1406-6.2344-9.1406h-11.25c-2.0625 0.14062-4.125 0.42188-6.1406 0.89062-16.312 2.8594-31.688 9.6562-44.719 19.875-8.3438 6.4688-15.891 13.828-22.5 21.984 18.797 25.641 47.906 41.672 79.594 43.875 17.25-12.609 37.781-19.922 59.156-21-9.3281-17.344-14.109-36.797-13.875-56.484zm15.984-168.52c-29.438 12.141-52.031 36.609-61.734 66.891 0 0.75 0 1.6406-0.60937 2.3906h-0.046876c-1.125 4.4531-1.9219 9-2.3438 13.594v4.875c-0.1875 3.2812-0.1875 6.6094 0 9.8906 1.125 14.812 5.3906 29.203 12.469 42.234 1.0312 2.1562 2.2031 4.2188 3.5156 6.1406 0.89062 1.6406 1.875 3.2344 2.8594 4.875 1.9219 3.0469 3.9375 6.0469 6.1406 8.8594 5.2969-2.4375 10.453-5.2031 15.375-8.3438 3.9844-2.4375 7.8281-5.0625 11.484-7.875 5.8594-22.031 18.469-41.625 36.141-56.016 5.5312-31.172-3-63.188-23.25-87.516zm-63.75 145.03c-7.5938-14.391-12.141-30.188-13.266-46.406v-8.3906 0.046875c-3.0938-1.7344-6.2812-3.2344-9.6094-4.5-5.7656-2.1562-11.719-3.75-17.766-4.7812-4.6875-0.79688-9.4688-1.2656-14.25-1.3594-32.766 1.0312-63.281 16.969-82.875 43.266 18.703 25.875 48 42.047 79.875 44.109 17.203-12.469 37.594-19.688 58.781-20.859zm390.89 144.61c-11.109-0.09375-22.172-1.4062-33-3.8906l-4.125-0.98438c3.8438 75.094-16.125 149.48-57.141 212.48-9.1406 13.547-19.266 26.438-30.234 38.531-18.703 20.344-39.422 38.766-61.875 54.844-8.2969 5.9062-10.453 17.25-4.875 25.781 2.7188 4.2188 7.0781 7.125 12.047 8.1094 4.9688 0.9375 10.078-0.1875 14.203-3.1406 111.23-80.484 166.74-191.76 165.74-331.64zm-200.63 13.359c-9.2812 8.8125-19.688 16.312-31.031 22.266 38.766 35.016 84.141 95.391 104.02 194.76 8.3438-9.5625 15.984-19.594 23.016-30.141l6.2344-9.5156c-16.781-67.5-52.219-128.95-102.23-177.37z"/>
</svg>
