<?xml version="1.0" encoding="UTF-8"?>
<svg width="1200pt" height="1200pt" version="1.1" viewBox="0 0 1200 1200" xmlns="http://www.w3.org/2000/svg">
 <path d="m948.83 625.27c8.9531-8.1836 14.844-15.504 22.273-27.73 16.152-26.965 22.488-63.648 16.922-95.41-13.43-87.336-105.02-145.3-190.16-123.68-25.656-84.602-114.52-146.28-198.57-146.17-85.043 0.875-171.5 62.664-196.95 146.17-127.51-30.898-237.98 102.39-173.24 219.1 7.4297 12.336 13.32 19.535 22.273 27.73 0.76953 0.76953 1.8594 1.6328 2.9531 2.5078-17.902 2.293-30.562 11.137-30.562 11.137s35.594-11.461 58.621 43.453c13.859 33.07 26.531 48.145 26.531 48.145-30.562 4.6914-38.641 26.426-38.641 26.426 13.754-6.875 29.473-3.168 40.715 1.5234 7.5352 3.0586 14.52 7.5352 20.734 13.105 70.199 62.664 142.03 81.77 178.38 87.66 14.195 2.293 27.73 8.5195 38.641 18.445 4.6914 4.2617 9.4922 7.8594 13.535 10.703 7.1992 5.0156 11.566 13.43 11.566 22.598v56.773h52.066v-56.773c0-9.168 4.3672-17.578 11.566-22.598 4.043-2.8438 8.8438-6.4453 13.535-10.703 10.922-9.9375 24.457-16.152 38.641-18.445 36.457-5.8906 108.18-24.996 178.38-87.66 6.2266-5.5664 13.211-10.043 20.734-13.105 11.242-4.5859 27.07-8.293 40.715-1.5234 0 0-7.9688-21.719-38.641-26.426 0 0 12.77-15.059 26.531-48.145 23.039-55.02 58.621-43.453 58.621-43.453s-12.66-8.8438-30.457-11.137c1.4336-0.98828 2.5234-1.8516 3.293-2.5117zm-68.016 34.605c-42.574 58.188-121.07 91.262-121.07 91.262s20.195-27.949 28.934-87.336c8.7344-59.387 50.543-85.801 50.543-85.801s-80.016-8.5195-112.77 83.508c-23.902 67.141-63.312 83.844-63.312 83.844s15.828-52.188-10.367-108.84c-26.195-56.773-25.656-44.207-52.727-120.52-26.965 76.199-26.426 63.758-52.727 120.52-26.195 56.773-10.367 108.84-10.367 108.84s-39.406-16.598-63.312-83.844c-32.746-92.027-112.77-83.508-112.77-83.508s41.809 26.426 50.543 85.801 28.934 87.336 28.934 87.336-78.492-32.965-121.07-91.262c-19.105-26.195-40.285-32.965-57.863-32.641-1.7539-3.2773-4.6914-8.0742-8.5195-14.734-8.293-14.52-15.18-32.316-17.902-50.977-14.758-90.289 69.734-169.55 158.6-140.94-3.2773 27.07 2.3984 66.48 14.09 87.336 4.6914 8.9531 8.9531 13.32 11.242 12.66l0.10938 0.10937v-0.21484l0.10938 0.10938c2.3984-0.98438 2.8438-6.7695 2.8438-16.152-0.32422-16.922 0.875-46.176 6.2266-65.723 17.473-78.926 91.043-138.2 171.39-134.05 80.016-4.9062 154.91 54.035 172.6 133.95 2.293 9.168 3.8164 18.887 4.8008 28.055 2.8438 14.953-1.0938 50.543 4.2617 53.82l0.10938-0.10938v0.21484l0.10938-0.10938c2.3984 0.66016 6.5508-3.707 11.352-12.66 11.676-20.855 17.352-60.266 14.09-87.336 116.27-33.625 199.56 91.598 140.71 191.91-3.707 6.6602-6.7695 11.461-8.5195 14.734-17.816-0.33594-39.105 6.4297-58.316 32.746z"/>
</svg>
