<?xml version="1.0" encoding="UTF-8"?>
<svg width="1200pt" height="1200pt" version="1.1" viewBox="0 0 1200 1200" xmlns="http://www.w3.org/2000/svg">
 <path d="m419.88 644.88c0.23828-0.48047 0-0.83984 0.48047-1.3203l150.36-150.12-20.762-56.879h-121.68l-205.32 205.08h110.76l146.52-137.16-136.32 145.44 36.961 100.8 38.039-104.52c0.11719-0.84375 0.71875-1.082 0.95703-1.3242z"/>
 <path d="m211.68 655.08-39.602 108.36h198.72l-39.242-108.36z"/>
 <path d="m638.4 644.64c0.23828-0.23828 0-0.83984 0.23828-1.0781l150.36-150.12-20.52-56.879-121.68-0.003906-205.32 205.08h110.52l146.52-137.16-136.08 145.44 36.602 100.8 38.281-104.52c-0.003907-0.84375 0.47656-1.082 1.0742-1.5625z"/>
 <path d="m429.84 655.08-39.359 108.36h198.84l-39.602-108.36z"/>
 <path d="m864.96 436.56-205.32 205.08h110.76l146.52-137.16-136.32 145.44 39.359 108.12 207.96-208.32-41.16-113.16z"/>
 <path d="m648.36 655.08-39.598 108.36h198.84l-39.363-108.36z"/>
</svg>
