<?xml version="1.0" encoding="UTF-8"?>
<svg width="1200pt" height="1200pt" version="1.1" viewBox="0 0 1200 1200" xmlns="http://www.w3.org/2000/svg">
 <path d="m614.74 460.45c-33.445 0-68.387 6.8945-101.4 11.883-16.227 2.4492-46.125 0.69141-56.496 15.965-14.66 21.586 52.004 23.496 62.836 24.996 34.84 4.8242 69.988 7.2422 105.14 8.0469 54.164 1.2422 108.66-0.82031 162.66-5.3594 23.859-2.0039 47.848-4.3945 71.379-8.9648 8.4492-1.6445 17.039-3.4805 25.043-6.7266 14.766-5.5898 9.75-13.953-1.8281-18.895-25.371-10.84-55.371-12.996-82.547-15.699-4.5938-0.45703-73.066-6.0703-73.066-3.2031-0.73828 9.7852-6.6797 23.957-15.211 29.258-12.328 7.6445-16.898-16.918-17.66-24.094-1.875-16.961 0.92578-33.996 1.3828-50.957 0.24609-9.1445 5.4727-9.7773 10.723-16.621 5.1094-6.6836 7.9336-14.957 7.9336-23.379 0-28.016-28.055-46.379-53.871-35.355-27.785 11.871-30.844 50.184-6.4922 67.395 4.4766 21.684 2.8711 48.492-2.2734 70.016-1.3828 5.7891-5.543 21.215-14.531 15.902-8.4844-5.0117-14.52-17.352-14.637-26.992-0.11719-5.0547 0.36328-7.2148-7.0781-7.2148z"/>
 <path d="m1050.7 871.34c-3.3164-31.863-15.059-60.809-26.238-90.551-13.055-34.758-25.09-69.785-39.551-104-14.016-33.176-29.156-66.27-48.352-96.828-8.8477-14.07-18.656-27.547-29.684-39.98-9.0586-10.195-15.668-10.043-27.645-6.7578-50.719 13.926-105.29 14.625-157.45 16.637-35.66 3.4961-73.207 1.5273-108.96 0.35156-34.203-1.1328-68.379-3.6641-102.29-8.3359-7.6211-1.0547-15.199-1.8633-22.793-3.1758-8.2422-1.4219-20.691-6.5859-28.996-4.2031-35.66 2.5391-58.473 54.684-71.328 81.82-16.922 35.695-29.461 73.031-42.895 110.11-21.41 59.098-54.641 122.48-35.32 186.79 17.316 57.633 66.48 93.703 121.7 111.15 48.605 15.363 99.891 19.043 150.36 23.496 73.734 6.5625 148.39 6.5273 221.94-2.4141 58.758-7.1367 121.39-16.945 172.31-49.125 43.148-27.281 77.93-71.25 75.188-124.62 0.11719 0.23438 0.11719 0.36328 0.11719 0.36328 0.070313-0.26562 0.035157-0.5-0.11719-0.72266z"/>
 <path d="m421.18 518.05c2.9727-6.1992 3.4219-11.07 2.4023-17.695-0.10156-0.64453-9.8555-5.9062-11.453-7.793-5.3516-6.3242-8.8477-14.395-11.234-22.27 0-108.35 58.664-214.15 156.16-264.12 96.266-49.34 213.73-32.574 294.33 38.785 63.234 55.977 98.777 138.61 99.469 222.7-1.3359 8.5664-4.4297 17.531-10.055 24.234-3.9023 4.6523-12.445 6.5703-13.559 12.953-0.45703 2.625 2.0039 18.367 4.8984 18.367 24.914 29.113 44.285 62.934 60.715 97.449 7.6055-40.73-4.6406-82.84-8.7539-123.39-4.9922-49.211-6.7383-97.406-24.152-144.44-36.703-99.172-121.8-178.42-226.43-199.68-105.6-21.461-214.46 19.477-283.91 100.87-34.91 40.918-59.207 90.48-70.773 142.98-5.3906 24.477-6.9609 48.852-8.0742 73.789-0.66797 14.855 0.85938 32.203-4.7578 46.082-12.027 29.711-14.004 63.684-9.6289 95.145 18.48-40.801 39.605-75.598 64.805-93.961 2.875-6-25.199 18.363 0 0z"/>
 <path d="m287.74 941.3c-19.566-44.391-16.336-92.543-3.0117-138.15 13.039-44.613 31.566-88.125 47.648-131.73-5.0391-12.949-12.598-21.715-12.598-21.715h-0.12109c-9.5195-14.238-21.938-26.25-33.785-38.52-10.328-10.699-19.008-22.883-29.691-33.23-13.203-12.777-25.434-16.688-43.617-15.469-21.352 1.4219-42.281 6.1953-63.426 9.2109 36.027 31.398 63.254 72.172 62.355 121.36-0.92969 51.34-12 101.4-4.9609 152.98 2.0977 15.352 4.582 33.609 13.32 46.816 6.4453 9.75 13.887 18.926 21.551 27.738 4.9805 5.7305 39.387 46.055 46.941 27.082 0.59766-1.3242 0.28516-5.4727-0.60547-6.3633-31.199-70.793 0.11719 0.11719 0 0z"/>
</svg>
